<?xml version="1.0" encoding="utf-8"?>
<!-- Svg Vector Icons : http://www.onlinewebfonts.com/icon -->
<!DOCTYPE svg PUBLIC "-//W3C//DTD SVG 1.1//EN" "http://www.w3.org/Graphics/SVG/1.1/DTD/svg11.dtd">
<svg version="1.1" xmlns="http://www.w3.org/2000/svg" xmlns:xlink="http://www.w3.org/1999/xlink" x="0px" y="0px" viewBox="0 0 1000 1000" enable-background="new 0 0 1000 1000" xml:space="preserve">
<metadata> Svg Vector Icons : http://www.onlinewebfonts.com/icon </metadata>
<g><g transform="translate(0.000000,511.000000) scale(0.100000,-0.100000)"><path d="M4827,4920.7l-1082.5-84.8H2398.6l-1345.9-2.2l-53.6-55.8c-46.9-46.9-55.8-73.6-55.8-196.4v-142.9l-216.5-29c-229.9-31.2-319.2-80.4-319.2-176.3c0-22.3,120.5-881.6,267.8-1906.1L943.4,463.5v-2401.6V-4342l55.8-53.6c51.3-53.6,64.7-55.8,352.7-55.8h299.1l15.6-116.1c8.9-62.5,26.8-133.9,37.9-156.2c49.1-93.8,98.2-91.5,1015.6,42.4l879.4,127.2l107.1-116c158.5-169.7,205.3-165.2,426.3,51.3l171.9,167.4h2015.5h2013.2l53.6,55.8c53.6,51.4,55.8,69.2,55.8,296.9v243.3l218.7,26.8c118.3,15.6,254.5,37.9,301.3,49.1c165.2,42.4,169.6-35.7-91.5,1781.1L8639.2-371.3l154,151.8c212,214.3,256.7,287.9,544.6,917.3c207.6,457.6,252.2,571.4,254.5,660.7c0,96-8.9,116.1-73.7,174.1c-113.8,102.7-180.8,89.3-651.7-122.8L8454,1222.3l-11.2,868.2l-11.2,868.2l-937.4,937.4l-937.4,937.4h-104.9c-75.9,0-154,24.6-287.9,89.3c-102.7,49.1-200.9,87-218.7,87C5925.2,5007.8,5423,4967.6,4827,4920.7z M6300.1,3639.6v-839.2l55.8-53.6l53.6-55.8h839.2h837v-823.6V1046l-82.6-58c-46.9-33.5-169.6-145.1-274.5-250l-189.7-189.7H4599.4H1657.6V369.7V191.2l2763.2-4.5l2765.4-6.7L6809-172.7l-377.2-350.4H4043.6h-2386v-178.6v-178.6l2189.6-4.5l2187.3-6.7l-375-350.4l-375-350.4l-1812.4-2.2H1657.6V-1773v-178.6h1618.2H4894l-383.9-357.1l-381.7-357.1H2891.9H1657.6v-178.5v-178.6l1037.9-4.5l1040.1-6.7l-359.4-330.3c-212-198.6-363.8-354.9-370.5-388.4c-17.9-69.2,13.4-138.4,116.1-250l80.4-91.5h-950.8h-950.8V191.2v4285.4h2499.8h2499.8V3639.6z M7248.7,3628.4l580.3-580.3h-587h-584.8v580.3c0,319.2,2.2,580.3,6.7,580.3C6666.2,4208.7,6929.6,3947.6,7248.7,3628.4z M941.1,3557l-2.2-520l-73.7,502.2c-42.4,274.5-69.2,508.9-64.7,517.8c6.7,8.9,40.2,17.9,78.1,17.9h64.7L941.1,3557z M9114.6,1079.5c-78.1-203.1-388.3-834.8-444.1-904C8579,57.2,8404.9-99,8371.4-99c-17.9,0-136.1,104.9-263.4,236.6l-234.4,234.4l189.7,183c185.2,180.8,200.9,189.7,613.8,377.2c234.4,107.1,430.8,194.2,439.7,194.2C9125.8,1128.6,9125.8,1106.3,9114.6,1079.5z M7846.9-116.8l218.7-221L6289-2047.5c-975.4-941.9-1783.3-1712-1794.5-1712c-22.3,0-453.1,455.3-466.5,488.8c-4.5,11.1,3582.3,3372.5,3600.2,3372.5C7628.2,101.9,7726.4,3.7,7846.9-116.8z M8079-4087.6c-4.5-4.5-770-4.5-1698.5-2.2l-1691.8,6.7l553.5,531.2l553.5,529h966.4h966.4v178.6v178.5l-774.5,4.5l-776.7,6.7L6539-2302l363.8,350.4h323.6H7550v178.6v176.3l-131.7,6.7l-131.7,6.7l395.1,379.4l392.8,379.4l6.7-1627.1C8083.5-3346.6,8083.5-4083.1,8079-4087.6z M8708.4-3455.9c-4.5-4.5-67-15.6-136.2-24.6l-129.5-15.6l2.2,955.3l2.2,957.5l136.1-930.7C8657.1-3027.4,8712.9-3451.4,8708.4-3455.9z M4117.3-3900.1l113.8-129.5l-131.7-133.9c-71.4-73.7-147.3-145.1-169.6-156.3c-29-15.6-80.3,29-261.1,234.4c-125,140.6-225.4,265.6-225.4,276.8c0,13.4,67,82.6,151.8,158.5l149.6,133.9l129.4-127.2C3945.4-3712.6,4054.8-3828.7,4117.3-3900.1z"/><path d="M1657.6,2512.4v-178.6h1607h1607v178.6V2691h-1607h-1607V2512.4z"/><path d="M1657.6,1441.1v-178.6h2946.2H7550v178.6v178.6H4603.8H1657.6V1441.1z"/></g></g>
</svg>