<?xml version="1.0" standalone="no"?>
<!DOCTYPE svg PUBLIC "-//W3C//DTD SVG 20010904//EN"
 "http://www.w3.org/TR/2001/REC-SVG-20010904/DTD/svg10.dtd">
<svg version="1.0" xmlns="http://www.w3.org/2000/svg"
 width="198.000000pt" height="198.000000pt" viewBox="0 0 198.000000 198.000000"
 preserveAspectRatio="xMidYMid meet">
<metadata>
Created by potrace 1.14, written by Peter Selinger 2001-2017
</metadata>
<g transform="translate(0.000000,198.000000) scale(0.100000,-0.100000)"
fill="#000000" stroke="none">
<path d="M835 1920 c-2 -3 -16 -7 -32 -8 -44 -4 -137 -28 -158 -40 -5 -4 -19
-8 -30 -9 -10 -2 -23 -9 -27 -16 -4 -6 -8 -8 -8 -4 0 18 -220 -116 -220 -134
0 -5 -4 -8 -8 -7 -9 3 -89 -77 -125 -126 -12 -15 -30 -35 -39 -44 -9 -9 -15
-19 -12 -24 3 -4 0 -8 -6 -8 -6 0 -8 -4 -5 -10 3 -5 1 -10 -4 -10 -6 0 -11 -7
-11 -15 0 -9 -7 -18 -15 -21 -8 -4 -13 -10 -10 -14 3 -5 1 -11 -5 -15 -5 -3
-10 -13 -10 -22 0 -9 -7 -24 -15 -33 -8 -9 -17 -27 -19 -41 -2 -13 -5 -24 -6
-24 -1 0 -3 -7 -5 -15 -2 -8 -11 -42 -20 -75 -9 -33 -18 -92 -20 -132 -1 -39
-6 -76 -9 -82 -4 -6 -4 -11 1 -11 4 0 9 -34 10 -76 1 -47 6 -80 13 -84 9 -6 9
-9 1 -15 -9 -5 -9 -10 0 -21 6 -8 8 -14 4 -14 -4 0 -3 -6 3 -12 5 -7 13 -29
17 -48 4 -19 11 -41 16 -50 4 -8 14 -30 21 -47 7 -18 17 -33 21 -33 5 0 6 -4
3 -9 -3 -5 1 -14 9 -21 8 -7 15 -18 15 -25 0 -6 9 -20 20 -30 11 -10 20 -22
20 -27 0 -23 196 -218 219 -218 5 0 11 -4 13 -8 4 -11 118 -78 148 -87 14 -4
27 -11 30 -14 6 -8 115 -43 145 -47 11 -1 20 -3 20 -4 0 -2 37 -8 95 -16 47
-6 169 -5 200 1 14 3 45 8 70 11 25 3 51 11 59 18 8 6 16 10 18 8 20 -18 315
123 296 141 -3 4 0 7 8 7 17 0 129 106 129 122 0 6 3 8 6 5 4 -4 21 15 38 41
17 26 37 54 45 62 20 21 96 182 93 198 -2 6 2 12 8 12 5 0 9 3 8 8 -1 4 3 30
10 57 7 28 15 61 18 75 3 14 7 75 9 135 2 88 8 123 28 177 14 36 23 69 19 72
-3 3 0 6 6 6 7 0 12 8 12 18 0 10 3 22 7 26 31 30 -10 60 -78 57 -39 -2 -49 2
-62 23 -9 13 -19 36 -23 50 -3 14 -11 26 -17 26 -6 0 -7 3 -4 6 6 6 -20 50
-48 81 -5 6 -21 26 -35 44 -14 18 -35 43 -47 55 -13 13 -23 28 -23 34 0 5 -3
10 -7 10 -5 0 -22 13 -40 28 -55 48 -71 60 -100 79 -15 9 -31 22 -35 28 -4 5
-8 6 -8 2 0 -5 -12 0 -27 11 -52 35 -211 98 -221 87 -3 -3 -10 -1 -16 5 -21
17 -312 35 -321 20z"/>
</g>
</svg>
